<?xml version="1.0" encoding="UTF-8" standalone="no"?>
<svg xmlns="http://www.w3.org/2000/svg" width="200" height="200" viewBox="0 0 200 200">
  <!-- Background -->
  <rect width="200" height="200" rx="10" fill="#f5f5f5" />
  
  <!-- AC Unit -->
  <rect x="50" y="70" width="100" height="60" rx="5" fill="#cccccc" stroke="#333" stroke-width="3" />
  
  <!-- Vents -->
  <rect x="60" y="80" width="80" height="10" rx="2" fill="#999999" stroke="#333" stroke-width="1" />
  <rect x="60" y="95" width="80" height="10" rx="2" fill="#999999" stroke="#333" stroke-width="1" />
  <rect x="60" y="110" width="80" height="10" rx="2" fill="#999999" stroke="#333" stroke-width="1" />
  
  <!-- Cold air symbols -->
  <path d="M30,70 L30,130 M20,80 L40,80 M20,100 L40,100 M20,120 L40,120" stroke="#3498db" stroke-width="3" stroke-linecap="round" />
  
  <!-- Snowflake -->
  <path d="M170,100 L170,100 M170,70 L170,130 M150,80 L190,120 M150,120 L190,80" stroke="#3498db" stroke-width="3" stroke-linecap="round" />
  <circle cx="170" cy="100" r="5" fill="#3498db" />
  
  <!-- Temperature indicator -->
  <path d="M80,40 Q100,20 120,40" stroke="#3498db" stroke-width="3" fill="none" stroke-linecap="round" />
  <path d="M80,160 Q100,180 120,160" stroke="#e74c3c" stroke-width="3" fill="none" stroke-linecap="round" />
</svg> 