<?xml version="1.0" encoding="UTF-8" standalone="no"?>
<svg xmlns="http://www.w3.org/2000/svg" width="200" height="200" viewBox="0 0 200 200">
  <!-- Background -->
  <rect width="200" height="200" rx="10" fill="#f5f5f5" />
  
  <!-- Engine block -->
  <rect x="40" y="60" width="120" height="80" rx="5" fill="#666666" stroke="#333" stroke-width="3" />
  
  <!-- Cylinders -->
  <rect x="50" y="70" width="20" height="60" rx="2" fill="#999999" stroke="#333" stroke-width="2" />
  <rect x="80" y="70" width="20" height="60" rx="2" fill="#999999" stroke="#333" stroke-width="2" />
  <rect x="110" y="70" width="20" height="60" rx="2" fill="#999999" stroke="#333" stroke-width="2" />
  <rect x="140" y="70" width="20" height="60" rx="2" fill="#999999" stroke="#333" stroke-width="2" />
  
  <!-- Spark plugs -->
  <rect x="50" y="40" width="5" height="30" fill="#cccccc" stroke="#333" stroke-width="1" />
  <rect x="80" y="40" width="5" height="30" fill="#cccccc" stroke="#333" stroke-width="1" />
  <rect x="110" y="40" width="5" height="30" fill="#cccccc" stroke="#333" stroke-width="1" />
  <rect x="140" y="40" width="5" height="30" fill="#cccccc" stroke="#333" stroke-width="1" />
  
  <!-- Wrench -->
  <path d="M160,30 L180,50 L170,60 L150,40 Z" fill="#3498db" stroke="#333" stroke-width="2" />
  <rect x="140" y="20" width="30" height="10" rx="5" transform="rotate(45, 155, 25)" fill="#3498db" stroke="#333" stroke-width="2" />
  
  <!-- Performance indicators -->
  <path d="M30,150 L50,130 L70,150 L90,120 L110,150 L130,130 L150,150 L170,120" fill="none" stroke="#e74c3c" stroke-width="3" stroke-linecap="round" stroke-linejoin="round" />
</svg> 