<?xml version="1.0" encoding="UTF-8" standalone="no"?>
<svg xmlns="http://www.w3.org/2000/svg" width="200" height="200" viewBox="0 0 200 200">
  <!-- Background -->
  <rect width="200" height="200" rx="10" fill="#f5f5f5" />
  
  <!-- Tire -->
  <circle cx="100" cy="100" r="70" fill="#333333" stroke="#222" stroke-width="3" />
  <circle cx="100" cy="100" r="50" fill="#666666" stroke="#222" stroke-width="2" />
  <circle cx="100" cy="100" r="20" fill="#cccccc" stroke="#222" stroke-width="2" />
  
  <!-- Rotation arrows -->
  <path d="M100,20 L110,30 L90,30 Z" fill="#3498db" />
  <path d="M180,100 L170,110 L170,90 Z" fill="#3498db" />
  <path d="M100,180 L90,170 L110,170 Z" fill="#3498db" />
  <path d="M20,100 L30,90 L30,110 Z" fill="#3498db" />
  
  <!-- Curved arrows -->
  <path d="M100,30 A60,60 0 0,1 160,90" fill="none" stroke="#3498db" stroke-width="5" stroke-linecap="round" />
  <path d="M170,100 A60,60 0 0,1 110,170" fill="none" stroke="#3498db" stroke-width="5" stroke-linecap="round" />
  <path d="M100,170 A60,60 0 0,1 40,110" fill="none" stroke="#3498db" stroke-width="5" stroke-linecap="round" />
  <path d="M30,100 A60,60 0 0,1 90,30" fill="none" stroke="#3498db" stroke-width="5" stroke-linecap="round" />
</svg> 