<?xml version="1.0" encoding="UTF-8" standalone="no"?>
<svg xmlns="http://www.w3.org/2000/svg" width="200" height="200" viewBox="0 0 200 200">
  <!-- Background -->
  <rect width="200" height="200" rx="10" fill="#f5f5f5" />
  
  <!-- Car silhouette -->
  <path d="M40,120 L160,120 L150,90 L50,90 Z" fill="#666666" stroke="#333" stroke-width="2" />
  
  <!-- Wheels -->
  <circle cx="60" cy="120" r="25" fill="#333333" stroke="#222" stroke-width="2" />
  <circle cx="60" cy="120" r="15" fill="#666666" stroke="#222" stroke-width="1" />
  <circle cx="60" cy="120" r="5" fill="#999999" />
  
  <circle cx="140" cy="120" r="25" fill="#333333" stroke="#222" stroke-width="2" />
  <circle cx="140" cy="120" r="15" fill="#666666" stroke="#222" stroke-width="1" />
  <circle cx="140" cy="120" r="5" fill="#999999" />
  
  <!-- Alignment lines -->
  <line x1="60" y1="120" x2="60" y2="160" stroke="#e74c3c" stroke-width="2" stroke-dasharray="5,3" />
  <line x1="140" y1="120" x2="140" y2="160" stroke="#e74c3c" stroke-width="2" stroke-dasharray="5,3" />
  
  <line x1="55" y1="160" x2="65" y2="160" stroke="#e74c3c" stroke-width="2" />
  <line x1="135" y1="160" x2="145" y2="160" stroke="#e74c3c" stroke-width="2" />
  
  <!-- Alignment angles -->
  <path d="M55,120 L50,160" stroke="#3498db" stroke-width="2" fill="none" />
  <path d="M145,120 L150,160" stroke="#3498db" stroke-width="2" fill="none" />
  
  <!-- Measurement tool -->
  <rect x="30" y="40" width="140" height="10" rx="5" fill="#999999" stroke="#333" stroke-width="2" />
  <path d="M40,50 L40,70 M100,50 L100,70 M160,50 L160,70" stroke="#333" stroke-width="2" />
</svg> 